PathFileType	4	(X/Y/Z)	Kaydara	
DataRate	CameraRate	NumFrames	NumMarkers	Units	OrigDataRate	OrigDataStartFrame	OrigNumFrames	
240.00	240.00	4	72	mm	240.00	270	359	
Frame#	Time	Hips			RightUpLeg			RightLeg			RightFoot			RightFoot_End			LeftUpLeg			LeftLeg			LeftFoot			LeftFoot_End			Spine			Spine1			Spine2			Spine3			Neck			Head			Head_End			RightShoulder			RightArm			RightForeArm			RightHand			RightHandThumb1			RightHandThumb2			RightHandThumb3			RightHandThumb3_End			RightInHandIndex			RightHandIndex1			RightHandIndex2			RightHandIndex3			RightHandIndex3_End			RightInHandMiddle			RightHandMiddle1			RightHandMiddle2			RightHandMiddle3			RightHandMiddle3_End			RightInHandRing			RightHandRing1			RightHandRing2			RightHandRing3			RightHandRing3_End			RightInHandPinky			RightHandPinky1			RightHandPinky2			RightHandPinky3			RightHandPinky3_End			LeftShoulder			LeftArm			LeftForeArm			LeftHand			LeftHandThumb1			LeftHandThumb2			LeftHandThumb3			LeftHandThumb3_End			LeftInHandIndex			LeftHandIndex1			LeftHandIndex2			LeftHandIndex3			LeftHandIndex3_End			LeftInHandMiddle			LeftHandMiddle1			LeftHandMiddle2			LeftHandMiddle3			LeftHandMiddle3_End			LeftInHandRing			LeftHandRing1			LeftHandRing2			LeftHandRing3			LeftHandRing3_End			LeftInHandPinky			LeftHandPinky1			LeftHandPinky2			LeftHandPinky3			LeftHandPinky3_End			
		X1	Y1	Z1	X2	Y2	Z2	X3	Y3	Z3	X4	Y4	Z4	X5	Y5	Z5	X6	Y6	Z6	X7	Y7	Z7	X8	Y8	Z8	X9	Y9	Z9	X10	Y10	Z10	X11	Y11	Z11	X12	Y12	Z12	X13	Y13	Z13	X14	Y14	Z14	X15	Y15	Z15	X16	Y16	Z16	X17	Y17	Z17	X18	Y18	Z18	X19	Y19	Z19	X20	Y20	Z20	X21	Y21	Z21	X22	Y22	Z22	X23	Y23	Z23	X24	Y24	Z24	X25	Y25	Z25	X26	Y26	Z26	X27	Y27	Z27	X28	Y28	Z28	X29	Y29	Z29	X30	Y30	Z30	X31	Y31	Z31	X32	Y32	Z32	X33	Y33	Z33	X34	Y34	Z34	X35	Y35	Z35	X36	Y36	Z36	X37	Y37	Z37	X38	Y38	Z38	X39	Y39	Z39	X40	Y40	Z40	X41	Y41	Z41	X42	Y42	Z42	X43	Y43	Z43	X44	Y44	Z44	X45	Y45	Z45	X46	Y46	Z46	X47	Y47	Z47	X48	Y48	Z48	X49	Y49	Z49	X50	Y50	Z50	X51	Y51	Z51	X52	Y52	Z52	X53	Y53	Z53	X54	Y54	Z54	X55	Y55	Z55	X56	Y56	Z56	X57	Y57	Z57	X58	Y58	Z58	X59	Y59	Z59	X60	Y60	Z60	X61	Y61	Z61	X62	Y62	Z62	X63	Y63	Z63	X64	Y64	Z64	X65	Y65	Z65	X66	Y66	Z66	X67	Y67	Z67	X68	Y68	Z68	X69	Y69	Z69	X70	Y70	Z70	X71	Y71	Z71	X72	Y72	Z72	

270	1.121	198.9409999999998	914.58397	126.699	245.73114999999962	888.3640200000001	50.23826	149.89054000000033	493.4183	-51.36366000000002	140.14384999999947	102.17958	-129.31173999999996	-11.018550000000687	25.495190000000004	-40.94861000000001	165.35251000000062	914.21257	214.87035999999998	72.78730000000087	511.99427999999995	286.02128	-8.888149999999769	86.84982000000001	364.27705	-129.68333000000075	3.97352	241.48189	137.60645000000022	1034.36178	77.90567	78.4077899999993	1090.07731	24.64632	13.70553000000018	1140.9910400000003	-34.22058	-52.28480000000036	1178.8493399999998	-94.68471	-124.10292000000027	1219.66013	-157.58593000000002	-191.05800999999974	1257.64438	-212.23592999999997	-326.8688399999992	1340.0347000000002	-226.64094	-86.53092000000015	1192.11388	-161.39724000000004	-67.34807	1103.07192	-252.05953000000002	-129.80534999999963	878.76119	-126.63254999999998	-240.4332800000002	647.7228599999999	-86.83559	-260.18475000000035	619.6482000000001	-107.29566000000001	-291.33475999999973	600.42301	-103.25508000000002	-311.66377999999986	586.57927	-96.21361999999999	-327.44447000000036	574.6488499999999	-86.72687000000002	-255.81038999999964	613.8565500000001	-95.38499999999999	-279.87252999999964	567.26931	-86.84971000000002	-303.5480699999998	543.3085499999997	-73.60831999999999	-321.3152400000008	537.0413999999998	-65.47432	-338.0771599999998	537.67479	-58.80802999999999	-251.59286000000066	614.6417800000002	-83.83663999999999	-272.7791100000004	569.6243100000002	-69.26714000000001	-297.9879499999997	543.7436300000002	-53.31294	-319.12305000000015	536.3098900000001	-42.77726	-337.3176199999998	537.06483	-35.13199	-247.92464999999993	616.28723	-75.94033999999999	-263.50950999999986	577.0838199999998	-56.15969000000001	-284.8093399999998	554.86931	-40.73792999999998	-304.8388100000002	547.88114	-29.77034000000002	-321.77711	548.6773700000001	-22.20034000000001	-243.58662000000004	620.30652	-66.73373	-254.96435999999994	586.4829000000001	-43.062779999999975	-270.9042300000001	569.40144	-28.434380000000004	-284.97383999999965	564.64629	-19.332030000000003	-299.66766000000007	565.5484600000002	-11.991720000000015	-113.73173999999926	1220.66828	-110.95460000000001	-142.92466999999942	1237.5404800000001	11.850460000000002	-147.86372999999912	978.7885799999999	-40.65335	-140.94223000000056	720.31114	-56.24233	-141.63800999999967	695.05451	-87.20262	-117.7825499999999	672.66266	-104.10763000000001	-99.99330999999984	655.92937	-111.72604999999997	-84.15689999999995	641.00467	-114.52335999999998	-139.59216000000015	687.48764	-75.66576000000002	-124.03957999999966	638.1403	-87.71424000000003	-101.96172999999999	610.01955	-93.35123999999999	-84.22319000000061	600.7086100000001	-97.79669999999999	-66.83428999999978	598.51403	-102.11089	-136.3991900000001	686.4013599999998	-63.816979999999994	-119.50579999999991	637.68011	-69.16047000000002	-95.02955999999995	607.01927	-73.70561999999998	-73.44394999999986	595.7977500000001	-78.29827000000002	-54.327540000000226	593.4022199999999	-82.64414	-134.64372999999978	686.8127399999998	-55.14148999999998	-118.28282000000036	643.27057	-52.40855999999998	-96.58129999999983	616.6491899999999	-54.72025000000001	-75.56484999999975	605.87971	-58.274040000000014	-57.4980000000005	603.6531699999998	-61.945059999999984	-132.2557399999996	689.3501099999999	-44.76872999999999	-116.11967999999979	650.69195	-35.88177	-98.23844999999983	629.72526	-35.17076999999999	-82.66543000000001	622.03962	-36.52354	-66.52098000000024	620.16491	-39.062190000000015
271	1.125	198.9409999999998	914.58397	126.699	245.64274999999998	888.2009900000002	50.2403	149.64261999999962	493.24689	-51.17826	140.22267999999985	101.99307	-129.09073999999998	-10.92841000000044	25.27969	-40.733419999999995	165.4322599999996	914.38583	214.90126	72.85918000000038	512.17218	286.06819	-8.806079999999383	87.03064	364.35044	-129.5929700000006	4.14302	241.55476000000002	137.64902000000075	1034.32374	77.75902	78.46285999999964	1089.9236300000002	24.36511	13.783190000000104	1140.7168200000003	-34.6306	-52.16547999999966	1178.4824699999997	-95.19805	-123.94716999999946	1219.19638	-158.20353000000003	-190.87104	1257.10311	-212.94553	-326.69063000000006	1339.4803500000003	-227.34275	-86.51977999999963	1191.44046	-161.91520000000003	-68.0983099999994	1101.47524	-251.82076	-132.29855000000043	878.7199199999998	-124.51583	-243.6537099999996	652.2487900000001	-65.25456	-264.8208199999999	623.87502	-83.79652000000002	-296.01088999999956	605.3001200000001	-77.59898000000001	-316.16444000000047	592.01961	-69.1159	-331.62485000000015	580.6531099999997	-58.47907000000001	-259.94111000000066	618.3883599999999	-71.93790000000001	-284.23369	572.4929699999999	-60.72667000000001	-307.5684199999996	549.35099	-45.56345000000002	-324.99639000000025	543.63448	-36.36026	-341.3916799999997	544.7516700000001	-28.89373999999998	-255.13857999999982	619.46569	-60.644360000000006	-276.23331999999937	575.28092	-43.6027	-300.99168999999983	550.3304299999999	-25.593609999999998	-321.6798600000002	543.5786099999999	-13.788269999999983	-339.45494000000053	544.8714999999999	-5.277250000000009	-251.05498999999963	621.29728	-52.99685000000001	-266.2083899999998	582.9942199999999	-31.217980000000026	-287.0354100000004	561.62671	-14.052240000000012	-306.5911900000001	555.3155700000001	-1.8849400000000287	-323.1148800000001	556.62672	6.487240000000014	-246.20156999999926	625.5312899999999	-44.15081000000001	-256.8786799999998	592.6574500000002	-18.870119999999986	-272.31667000000016	576.3068699999999	-2.927320000000009	-285.98113999999987	572.07101	7.010379999999998	-300.2733699999999	573.44398	15.038430000000005	-113.45012000000042	1220.4847300000001	-111.60729	-142.2743500000006	1239.00583	11.047160000000002	-149.1324799999993	979.55034	-37.629360000000005	-141.20590999999968	720.91589	-49.74948000000001	-144.6166400000002	694.3168000000001	-79.37678	-122.24539000000004	671.4342399999999	-97.6024	-105.06767000000036	654.5543900000002	-106.23354	-89.3799799999997	639.6744400000001	-109.95472000000001	-141.33098999999947	687.2845999999998	-67.78822	-126.36265000000003	637.6074100000001	-79.20457999999999	-104.56231000000025	609.4800800000002	-85.80631	-87.2239499999996	600.15408	-91.59580000000003	-70.31982000000062	597.93962	-97.52446	-136.96354000000065	686.7512000000002	-56.28128000000002	-120.00476999999955	638.00719	-61.192720000000016	-95.67432000000008	607.4134899999999	-66.83949999999999	-74.49614999999994	596.2094500000001	-73.07714	-55.8735400000005	593.8095000000001	-79.20094999999999	-134.36207999999988	687.56055	-47.84966	-117.20427000000018	644.3403700000001	-44.90090000000002	-95.46943999999985	617.85349	-48.223600000000005	-74.76083999999992	607.1412199999997	-53.39110999999998	-57.11793000000034	604.92965	-58.74661999999999	-130.9925800000001	690.5744500000001	-37.88483000000001	-113.51623999999993	652.5017700000001	-29.00496000000001	-95.36161999999968	631.7599400000001	-29.183880000000002	-79.89379000000008	624.1727000000001	-31.75255999999999	-64.05619999999999	622.3438699999999	-35.80576000000002
272	1.129	198.9409999999998	914.58397	126.699	245.56304999999975	888.0350700000001	50.24909999999999	149.45254000000023	493.08332	-51.074070000000006	140.3465699999997	101.81521999999998	-128.95215	-10.795680000000175	25.076639999999998	-40.60159000000001	165.5029799999993	914.5631799999999	214.92831000000004	72.9086499999994	512.35339	286.08941999999996	-8.741570000000138	87.21105	364.38304	-129.51568000000043	4.3172299999999995	241.57897	137.69262999999955	1034.2805299999998	77.59899	78.52566999999999	1089.7670799999999	24.066080000000003	13.87604999999985	1140.4431999999997	-35.063100000000006	-52.02356999999938	1178.1200999999996	-95.73910999999998	-123.76095999999961	1218.74106	-158.85495	-190.64672999999948	1256.57347	-213.69485000000003	-326.47530000000006	1338.9369700000002	-228.08589000000003	-86.47627999999986	1190.78013	-162.46271999999996	-68.94434999999976	1099.7592599999998	-251.47921	-134.8808200000003	878.55632	-122.36768000000001	-245.01900999999998	653.4903199999999	-55.9153	-267.5258700000004	624.8959900000001	-72.42973999999998	-298.56851000000006	606.9622699999999	-64.00399999999999	-318.39959	594.22747	-54.05145000000002	-333.4031500000001	583.4007800000002	-42.25994	-262.07916000000023	619.68795	-60.69297000000002	-286.3130799999999	574.49499	-46.81776999999998	-309.0835900000002	552.1449099999999	-29.730869999999996	-326.0570799999996	546.95176	-19.433149999999983	-342.00625000000036	548.5230899999999	-11.12908999999999	-256.65598000000045	621.02504	-49.71253	-277.35793999999987	577.6658200000002	-30.241860000000003	-301.4182899999996	553.6118200000001	-10.183540000000022	-321.5186300000005	547.50697	2.918389999999988	-338.78636000000006	549.30431	12.33420000000001	-252.13926999999967	623.0199499999999	-42.354910000000004	-266.576	585.5918	-18.652919999999995	-286.71100000000024	565.0374899999999	0.2441699999999969	-305.65538000000015	559.3672900000001	13.63302999999999	-321.6809999999996	561.16076	22.842150000000004	-246.75788999999986	627.4398599999998	-33.91453000000001	-256.4651500000009	595.47564	-7.1215799999999945	-271.2216699999999	579.8220799999998	10.113760000000013	-284.37859000000026	576.0758900000001	20.897059999999982	-298.19416	577.8888800000001	29.640379999999993	-113.14535999999953	1220.30214	-112.29392000000001	-141.60363999999936	1240.45168	10.189160000000001	-150.26802000000043	980.3531799999998	-34.613609999999994	-141.54935000000023	721.6051299999998	-43.27056	-145.98689999999988	694.6433599999999	-72.43033999999999	-124.26295000000027	671.52398	-91.13386	-107.39661999999953	654.52862	-100.14414	-91.84929000000011	639.59466	-104.22101000000004	-142.30342999999993	687.75323	-60.8761	-127.74647999999979	637.92985	-72.18692999999999	-106.19181000000026	609.71033	-79.18969	-89.0654999999997	600.30332	-85.45938000000001	-72.3769000000002	598.0058400000003	-91.94124999999998	-137.5406499999999	687.3597599999999	-49.52136999999999	-120.76931000000059	638.5488699999999	-54.412089999999985	-96.6533900000004	607.8734999999999	-60.517480000000006	-75.70535000000018	596.5808300000001	-67.34456	-57.30608000000029	594.09445	-74.07858000000002	-134.64896000000044	688.2719	-41.195449999999994	-117.40597999999954	645.08158	-38.306589999999986	-95.80310999999983	618.5429999999999	-42.05059	-75.28726999999981	607.7555800000001	-47.79810000000002	-57.84050000000025	605.46765	-53.7328	-130.93632999999954	691.4069599999998	-31.391229999999993	-113.16906999999992	653.4369699999997	-22.65005000000002	-95.03465000000051	632.6839899999999	-23.199749999999995	-79.66607999999997	625.05656	-26.20765999999999	-63.978439999999864	623.1685099999997	-30.78322999999999
273	1.133	198.9409999999998	914.58397	126.699	245.4874400000008	887.87978	50.25710000000001	149.2727700000005	492.9218	-50.94283	140.48887999999988	101.64212	-128.79971999999998	-10.640879999999925	24.8724	-40.45486000000001	165.57225999999991	914.7304600000001	214.95442	72.95740000000023	512.5217599999999	286.09493	-8.836669999999685	87.37762	364.2284700000001	-129.5993900000003	4.480340000000001	241.41554000000002	137.72429999999986	1034.23418	77.44675999999998	78.57149000000027	1089.6075399999997	23.781179999999996	13.947500000000218	1140.1680400000002	-35.47486000000001	-51.906089999999494	1177.7596100000003	-96.25368	-123.59882999999991	1218.29569	-159.47473999999997	-190.44282999999996	1256.06527	-214.40878999999998	-326.18056999999953	1338.5515099999998	-228.95306	-86.46028000000024	1190.12795	-162.97952	-69.64544000000024	1098.28192	-251.28394	-137.3205600000001	878.66522	-120.37660000000001	-245.83102000000054	655.5263600000001	-45.306129999999996	-269.6507899999997	626.8597099999998	-59.72012000000001	-300.40329999999994	609.6381899999999	-49.04491999999999	-319.80322999999953	597.47935	-37.62978000000001	-334.2513799999997	587.2012399999999	-24.707889999999992	-263.60934	621.8787499999999	-48.177459999999996	-287.63184	577.4486	-31.712670000000003	-309.68883000000005	555.91255	-12.747659999999996	-326.1108600000007	551.2565699999999	-1.3568699999999865	-341.53081999999995	553.2934799999998	7.801649999999995	-257.5435099999995	623.42029	-37.56623999999999	-277.6918000000005	580.9156100000001	-15.769499999999994	-300.8887400000003	557.77473	6.2812000000000126	-320.28305	552.3298700000001	20.67452	-336.9519500000006	554.6424499999999	31.011950000000013	-252.58235999999943	625.53798	-30.53649	-266.14941999999974	588.9758199999999	-5.037219999999991	-285.44600999999966	569.2414699999999	15.534480000000002	-303.66375999999946	564.2206799999999	30.1361	-319.1047100000005	566.5046599999998	40.19619	-246.66169999999966	630.0946400000001	-22.54164000000003	-255.2529000000004	599.0018599999999	5.622770000000003	-269.2078499999998	584.0387100000002	24.09462000000002	-281.77178000000004	580.7825699999999	35.711990000000014	-295.03318000000036	583.03948	45.18004000000002	-112.86139000000003	1220.12582	-112.95146000000001	-140.94398	1241.89356	9.34129	-151.27914000000055	981.2074499999998	-31.518550000000005	-141.68654999999944	722.4034000000001	-36.99154	-147.4134899999999	694.9712099999999	-65.48011	-126.54154000000017	671.52908	-84.74371	-110.09288000000015	654.37335	-94.21061	-94.74343999999928	639.36077	-98.72513	-143.22384000000056	688.26814	-53.988469999999985	-129.1893400000008	638.25315	-65.11240999999998	-107.96996000000036	609.9034999999999	-72.59705000000001	-91.13914999999997	600.37979	-79.46247000000001	-74.7538599999998	597.96156	-86.63719999999999	-137.96371	688.05662	-42.85046999999999	-121.43292999999994	639.1572499999999	-47.67595	-97.61553000000004	608.3645300000001	-54.337140000000005	-76.99169000000074	596.9428700000001	-61.89733	-58.90857000000051	594.33012	-69.39645000000002	-134.70654999999988	689.10254	-34.676619999999986	-117.35969999999998	645.9500899999999	-31.84429	-95.94780999999966	619.33454	-36.10352000000002	-75.70791999999983	608.4361500000001	-42.574539999999985	-58.54100000000017	606.0357700000001	-49.23638	-130.5635399999992	692.3946	-25.0989	-112.43328999999994	654.5572400000001	-16.52964	-94.34428000000025	633.7819400000001	-17.539750000000012	-79.1249799999996	626.09259	-21.098540000000014	-63.6553100000001	624.11587	-26.331549999999993
